<svg id="Capa_1" enable-background="new 0 0 512 512" height="512" viewBox="0 0 512 512" width="512" xmlns="http://www.w3.org/2000/svg"><g><g><g><path d="m310 512h45c8.284 0 15-6.716 15-15v-97c0-47.28-34.719-86.598-80-93.812l-105 20.812-105-20.812c-45.281 7.214-80 46.532-80 93.812v97c0 8.284 6.716 15 15 15h45l125-20z" fill="#a65d4e"/></g><path d="m310 512h45c8.284 0 15-6.716 15-15v-97c0-47.28-34.719-86.598-80-93.812l-105 20.812v165z" fill="#784033"/><path d="m308.416 413.292c-12.111-24.222-18.416-50.935-18.416-78.016 0-15.337 0-29.088 0-29.088-4.888-.779-9.897-1.188-15-1.188h-180c-5.103 0-10.112.41-15 1.188v29.091c0 27.081-6.305 53.791-18.416 78.013l-1.584 3.167v95.541h250s0-73.122 0-92.006c0-2.329-.542-4.619-1.584-6.702z" fill="#fff5f5"/><path d="m290 335.279v-29.091c-4.888-.779-9.897-1.188-15-1.188h-90v207h125v-95.541l-1.584-3.167c-12.111-24.223-18.416-50.932-18.416-78.013z" fill="#e1ebf0"/><path d="m185 375c-22.091 0-40-17.909-40-40v-90h80v90c0 22.091-17.909 40-40 40z" fill="#784033"/><path d="m185 375c22.091 0 40-17.909 40-40v-90h-40z" fill="#61362b"/><g><path d="m245 95h-160v95c0 55.228 44.771 100 100 100 55.228 0 100-44.771 100-100v-55c0-22.091-17.909-40-40-40z" fill="#a65d4e"/><path d="m245 95h-60v195c55.228 0 100-44.771 100-100v-55c0-22.091-17.909-40-40-40z" fill="#784033"/></g><path d="m285 140c-29.807.045-56.803-15.481-71.94-40.053-18.981 24.68-48.607 39.921-81.013 40.052-50.697.205-92.176-41.987-92.176-92.684v-32.315c0-8.284 6.716-15 15-15h155.129c41.421 0 75 33.579 75 75z" fill="#453d81"/><path d="m185 125.081c10.772-6.545 20.305-15.051 28.06-25.134 15.137 24.572 42.133 40.098 71.94 40.053v-65c0-41.421-33.579-75-75-75h-25z" fill="#2e2654"/></g><g><g><path d="m278.681 303.198c-13.86 18.129-23.062 39.995-25.81 63.802l10.129 15-10.13 15c2.748 23.806 11.95 45.672 25.81 63.802l21.32 1.198-.51 20.386c18.82 15.497 42.059 25.806 67.51 28.744l15-10.13 15 10.13c25.451-2.938 48.69-13.247 67.51-28.744l.49-22.386 20.319.802c13.86-18.129 23.062-39.995 25.81-63.802l-10.129-15 10.13-15c-2.748-23.806-11.95-45.672-25.81-63.802l-20.32-.198-.49-21.386c-18.82-15.497-42.059-25.806-67.51-28.744l-15 10.13-15-10.13c-25.451 2.938-48.69 13.247-67.51 28.744l.51 21.386z" fill="#ffc178"/></g><path d="m397 511.13c25.451-2.938 48.69-13.247 67.51-28.744l.49-22.386 20.319.802c13.86-18.129 23.062-39.995 25.81-63.802l-10.129-15 10.13-15c-2.748-23.806-11.95-45.672-25.81-63.802l-20.32-.198-.49-21.386c-18.82-15.497-42.059-25.806-67.51-28.744l-15 10.13v238z" fill="#ff8659"/><path d="m485.319 460.802c-15.754-15.398-26.8-37.993-29.919-63.802h55.729c.568-4.923.87-9.927.87-15s-.302-10.077-.87-15h-55.729c3.119-25.808 14.165-48.403 29.919-63.802-6.091-7.966-13.074-15.215-20.809-21.584-3.035 2.967-5.958 6.136-8.75 9.515-17.182 20.8-27.778 47.318-30.534 75.871h-28.226v-114.13c-4.923-.568-9.927-.87-15-.87s-10.077.302-15 .87v114.13h-28.226c-2.756-28.552-13.352-55.071-30.534-75.871-2.792-3.379-5.715-6.548-8.75-9.515-7.735 6.369-14.719 13.618-20.809 21.584 15.754 15.398 26.8 37.993 29.919 63.802h-55.73c-.568 4.923-.87 9.927-.87 15s.302 10.077.87 15h55.73c-3.119 25.808-14.165 48.403-29.919 63.802 6.091 7.966 13.074 15.215 20.809 21.584 3.035-2.967 5.958-6.136 8.75-9.515 17.182-20.8 27.778-47.318 30.534-75.871h28.226v114.13c4.923.568 9.927.87 15 .87s10.077-.302 15-.87v-114.13h28.226c2.756 28.552 13.352 55.071 30.534 75.871 2.792 3.379 5.715 6.548 8.75 9.515 7.735-6.37 14.719-13.618 20.809-21.584z" fill="#fff5f5"/><path d="m397 511.13v-114.13h28.226c2.756 28.552 13.352 55.071 30.534 75.871 2.792 3.379 5.715 6.548 8.75 9.515 7.735-6.369 14.719-13.618 20.809-21.584-15.754-15.398-26.8-37.993-29.919-63.802h55.729c.568-4.923.87-9.927.87-15s-.302-10.077-.87-15h-55.729c3.119-25.808 14.165-48.403 29.919-63.802-6.091-7.966-13.074-15.215-20.809-21.584-3.035 2.967-5.958 6.136-8.75 9.515-17.182 20.8-27.778 47.318-30.534 75.871h-28.226v-114.13c-4.923-.568-9.927-.87-15-.87v260c5.073 0 10.077-.302 15-.87z" fill="#e1ebf0"/></g></g></svg>